<svg width="417" height="1906" viewBox="0 0 417 1906" fill="none" xmlns="http://www.w3.org/2000/svg">
<g clip-path="url(#clip0_96_488)">
<path d="M206.761 0.224622C183.175 -1.4485 165.58 6.61565 154.971 11.4692C141.375 17.6944 129.212 23.2715 121.199 36.2043C115.375 45.625 114.303 57.4726 112.191 81.1827C111.104 93.3317 111.647 96.8287 109.942 114.916C108.207 133.23 107.407 132.266 107.694 137.406C108.765 156.413 119.253 160.664 123.463 177.892C128.458 198.377 119.615 216.826 116.703 222.871C109.052 238.833 98.0813 246.807 78.4189 261.111C52.8713 279.697 29.5269 288.469 24.3811 290.353C3.66238 297.935 -18.3994 303.844 -18.3994 303.844C-34.1988 308.079 -38.8767 308.516 -45.4259 312.842C-59.3691 322.052 -64.0772 337.155 -67.9403 348.822C-85.5807 402.061 -86.305 385.194 -97.2152 425.288C-106.933 461.057 -109.996 487.887 -115.233 535.503C-119.654 575.809 -121.872 595.962 -121.993 616.477C-122.219 655.094 -116.893 688.707 -106.224 755.919C-104.519 766.681 -102.165 780.774 -97.2152 798.651C-92.4769 815.774 -87.1048 830.139 -83.7095 839.138C-77.6282 855.251 -76.9038 854.934 -70.2038 872.872C-62.9002 892.391 -63.1718 894.336 -58.9466 902.113C-51.4015 915.996 -46.7085 916.855 -38.6806 929.11C-30.5319 941.545 -27.876 952.111 -22.9114 971.842C-19.9386 983.659 -15.9397 1000.01 -16.151 1021.33C-16.3472 1040.58 -19.7575 1041.48 -18.3994 1055.06C-16.6037 1073.07 -9.79801 1079.65 -2.6302 1097.79C1.50451 1108.28 1.85155 1112.72 8.62704 1160.77C17.5604 1224.18 17.2888 1218.85 17.6358 1223.74C20.1106 1259.45 14.98 1263.16 15.3874 1315.96C15.5383 1335.99 16.3985 1351.76 17.6358 1374.45C18.1036 1383.1 18.8883 1396.23 22.1327 1437.42C26.6749 1494.85 28.9383 1523.57 31.1415 1538.64C35.6987 1569.81 38.3546 1574.59 40.1503 1599.37C42.0064 1624.92 39.8032 1628.26 42.3987 1653.35C45.6733 1684.95 49.4156 1682.02 51.4075 1709.57C53.0523 1732.53 50.9096 1740.85 58.1679 1752.3C65.3961 1763.71 72.5035 1763.35 76.1855 1774.79C76.1855 1774.79 77.8153 1779.85 76.1855 1806.28C76.1855 1806.28 74.8123 1820.96 78.434 1831.01C81.9801 1840.83 88.2727 1840.63 100.949 1853.5C113.79 1866.54 110.455 1869.92 121.215 1880.5C134.328 1893.39 149.222 1898.16 157.235 1900.74C175.765 1906.68 191.006 1905.84 200.015 1905.23C220.191 1903.91 233.968 1898.16 238.299 1896.24C250.462 1890.84 256.543 1888.14 258.565 1882.74C262.141 1873.16 251.699 1863.93 227.042 1831.01C212.102 1811.06 204.527 1800.87 200.015 1790.53C192.772 1773.93 186.585 1750.31 186.51 1750.04C200.423 1730.67 204.527 1729.8 204.527 1729.8C211.68 1728.27 216.961 1735.49 227.042 1743.29C241.211 1754.25 254.37 1758.19 272.071 1763.53C297.89 1771.31 319.514 1770.8 328.357 1770.28C342.074 1769.48 357.345 1768.41 373.386 1759.04C380.373 1754.95 396.745 1745.38 395.9 1734.3C395.266 1725.94 384.205 1720.36 362.129 1709.57C344.518 1700.96 337.154 1699.26 314.836 1689.33C295.415 1680.69 285.607 1676.27 281.064 1671.33C269.158 1658.4 269.581 1641.74 269.807 1612.84C270.501 1525.66 267.74 1542.36 269.807 1518.38C273.504 1475.53 277.594 1476.81 283.313 1426.16C287.206 1391.74 285.154 1392.44 290.073 1333.95C292.171 1308.89 294.479 1281.87 299.082 1246.23C307.864 1178.21 310.203 1193.78 312.588 1160.77C314.851 1129.42 312.95 1112.73 326.093 1100.04C332.069 1094.27 334.876 1095.4 359.865 1082.04C379.512 1071.55 389.321 1066.31 393.637 1061.8C408.999 1045.78 404.064 1024.22 404.894 985.333C405.633 950.724 409.768 957.553 413.903 906.605C418.324 851.995 416.287 810.725 413.903 762.656C412.997 744.508 410.296 713.081 404.894 650.195C399.944 592.586 397.455 569.388 393.637 542.241C387.586 499.283 382.138 474.638 380.131 465.775C369.311 418.189 368.074 433.292 357.617 389.309C355.353 379.798 353.512 371.085 346.359 362.313C337.124 350.993 328.84 351.581 308.076 339.823C286.316 327.494 273.399 314.365 269.792 310.581C257.388 297.573 248.455 288.183 247.278 274.602C246.417 264.578 250.431 259.74 263.047 234.115C274.44 210.978 280.129 199.417 283.313 189.137C286.678 178.239 285.607 176.912 290.073 128.407C293.393 92.2163 294.48 87.6491 292.322 76.6758C291.084 70.3451 287.508 53.1466 274.304 36.1892C249.134 3.84219 210.835 0.511012 206.761 0.224622Z" fill="#FEEEBD" fill-opacity="0.3"/>
</g>
<defs>
<clipPath id="clip0_96_488">
<rect width="417" height="1906" fill="white"/>
</clipPath>
</defs>
</svg>
