<svg width="433" height="1906" viewBox="0 0 433 1906" fill="none" xmlns="http://www.w3.org/2000/svg">
<g clip-path="url(#clip0_96_491)">
<path d="M209.749 0.224622C233.335 -1.4485 250.93 6.61565 261.539 11.4692C275.135 17.6944 287.297 23.2715 295.31 36.2043C301.135 45.625 302.206 57.4726 304.319 81.1827C305.406 93.3317 304.862 96.8287 306.568 114.916C308.303 133.23 309.103 132.266 308.816 137.406C307.745 156.413 297.257 160.664 293.047 177.892C288.052 198.377 296.895 216.826 299.807 222.871C307.458 238.833 318.428 246.807 338.091 261.111C363.638 279.697 386.983 288.469 392.129 290.353C412.847 297.935 434.909 303.844 434.909 303.844C450.708 308.079 455.386 308.516 461.936 312.842C475.879 322.052 480.587 337.155 484.45 348.822C502.09 402.061 502.815 385.194 513.725 425.288C523.443 461.057 526.506 487.887 531.742 535.503C536.164 575.809 538.382 595.962 538.503 616.477C538.729 655.094 533.402 688.707 522.734 755.919C521.029 766.681 518.674 780.774 513.725 798.651C508.987 815.774 503.614 830.139 500.219 839.138C494.138 855.251 493.413 854.934 486.713 872.872C479.41 892.391 479.681 894.336 475.456 902.113C467.911 915.996 463.218 916.855 455.19 929.11C447.042 941.545 444.386 952.111 439.421 971.842C436.448 983.659 432.449 1000.01 432.661 1021.33C432.857 1040.58 436.267 1041.48 434.909 1055.06C433.113 1073.07 426.308 1079.65 419.14 1097.79C415.005 1108.28 414.658 1112.72 407.883 1160.77C398.949 1224.18 399.221 1218.85 398.874 1223.74C396.399 1259.45 401.53 1263.16 401.122 1315.96C400.971 1335.99 400.111 1351.76 398.874 1374.45C398.406 1383.1 397.621 1396.23 394.377 1437.42C389.835 1494.85 387.571 1523.57 385.368 1538.64C380.811 1569.81 378.155 1574.59 376.359 1599.37C374.503 1624.92 376.706 1628.26 374.111 1653.35C370.836 1684.95 367.094 1682.02 365.102 1709.57C363.457 1732.53 365.6 1740.85 358.342 1752.3C351.114 1763.71 344.006 1763.35 340.324 1774.79C340.324 1774.79 338.694 1779.85 340.324 1806.28C340.324 1806.28 341.697 1820.96 338.076 1831.01C334.53 1840.83 328.237 1840.63 315.561 1853.5C302.72 1866.54 306.054 1869.92 295.295 1880.5C282.182 1893.39 267.288 1898.16 259.275 1900.74C240.744 1906.68 225.503 1905.84 216.495 1905.23C196.319 1903.91 182.542 1898.16 178.211 1896.24C166.048 1890.84 159.967 1888.14 157.945 1882.74C154.368 1873.16 164.811 1863.93 189.468 1831.01C204.407 1811.06 211.983 1800.87 216.495 1790.53C223.738 1773.93 229.925 1750.31 230 1750.04C216.087 1730.67 211.983 1729.8 211.983 1729.8C204.83 1728.27 199.548 1735.49 189.468 1743.29C175.298 1754.25 162.14 1758.19 144.439 1763.53C118.62 1771.31 96.9957 1770.8 88.1529 1770.28C74.436 1769.48 59.1648 1768.41 43.124 1759.04C36.1372 1754.95 19.7644 1745.38 20.6095 1734.3C21.2433 1725.94 32.3043 1720.36 54.3812 1709.57C71.9914 1700.96 79.3554 1699.26 101.674 1689.33C121.095 1680.69 130.903 1676.27 135.445 1671.33C147.352 1658.4 146.929 1641.74 146.703 1612.84C146.008 1525.66 148.77 1542.36 146.703 1518.38C143.006 1475.53 138.916 1476.81 133.197 1426.16C129.304 1391.74 131.356 1392.44 126.437 1333.95C124.339 1308.89 122.03 1281.87 117.428 1246.23C108.645 1178.21 106.306 1193.78 103.922 1160.77C101.659 1129.42 103.56 1112.73 90.4164 1100.04C84.4407 1094.27 81.634 1095.4 56.6447 1082.04C36.9974 1071.55 27.1888 1066.31 22.873 1061.8C7.51125 1045.78 12.4457 1024.22 11.6158 985.333C10.8763 950.724 6.74165 957.553 2.60695 906.605C-1.81446 851.995 0.222716 810.725 2.60695 762.656C3.51236 744.508 6.2135 713.081 11.6158 650.195C16.5653 592.586 19.0552 569.388 22.873 542.241C28.9241 499.283 34.3717 474.638 36.3787 465.775C47.1983 418.189 48.4357 433.292 58.8932 389.309C61.1567 379.798 62.9977 371.085 70.1504 362.313C79.3856 350.993 87.67 351.581 108.434 339.823C130.194 327.494 143.111 314.365 146.718 310.581C159.122 297.573 168.055 288.183 169.232 274.602C170.092 264.578 166.078 259.74 153.463 234.115C142.07 210.978 136.381 199.417 133.197 189.137C129.832 178.239 130.903 176.912 126.437 128.407C123.117 92.2163 122.03 87.6491 124.188 76.6758C125.426 70.3451 129.002 53.1466 142.206 36.1892C167.376 3.84219 205.675 0.511012 209.749 0.224622Z" fill="#FEEEBD" fill-opacity="0.3"/>
</g>
<defs>
<clipPath id="clip0_96_491">
<rect width="433" height="1906" fill="white"/>
</clipPath>
</defs>
</svg>
